<svg xmlns="http://www.w3.org/2000/svg" width="200" height="200" fill="none"><path fill="#93C8A3" d="M0 200h200V0H0v200Z"/><path fill="#EEF2F0" fill-rule="evenodd" d="M94.004 40.235c-9.99.99-20.247 4.664-28.532 10.224-3.36 2.254-11.584 9.689-11.584 10.471 0 .19-.865 1.45-1.922 2.8-13.388 17.09-15.943 42.476-5.628 55.924 14.222 18.541 54.22 18.738 78.385.386 19.645-14.92 27.713-39.979 18.793-58.375-4.234-8.73-13.573-14.73-24.52-15.75-2.977-.278-2.956-.306-2.037 2.733.316 1.045.575 2.486.575 3.201 0 1.058.199 1.382 1.06 1.731 13.032 5.28 16.71 16.985 9.721 30.934-2.429 4.848-10.667 14.654-13.715 16.327-.47.258-2.345 1.486-4.168 2.729-27.067 18.466-59.039 9.906-59.024-15.804.011-20.338 20.736-41.598 40.55-41.598 15.73 0 15.628 19.01-.197 36.742-3.374 3.78-3.176 4.457.669 2.285 12.202-6.892 22.994-23.272 21.863-33.182-1.056-9.254-7.574-13.037-20.29-11.778Zm-5.207 10.893c-4.627 2.025-8.441 4.149-12.922 7.197-1.592 1.082-3.067 2.057-3.28 2.167-1.643.85-11.297 10.412-13.204 13.077-4.643 6.49-5.792 15.374-3.021 23.367 1.542 4.449 1.92 4.483 2.78.25 1.401-6.904 4.52-14.347 8.54-20.382 3.101-4.655 12.768-14.77 14.115-14.77.124 0 1.184-.615 2.356-1.367 3.215-2.063 9.397-4.996 12.694-6.023 3.236-1.008 3.515-1.44 2.099-3.246-2.068-2.637-4.594-2.704-10.157-.27Zm68.327 45.622c-.466 6.842-3.335 16.741-5.683 19.608-.193.236-1.362 1.996-2.597 3.912-3.144 4.874-6.164 8.313-10.249 11.669a886.086 886.086 0 0 0-4.86 4.017c-10.068 8.45-29.689 10.787-45.517 5.421-7.364-2.496-7.808-2.601-13.886-3.293-5.395-.614-10.851-1.646-11.187-2.116-.106-.149-1.842-.84-3.857-1.537-2.015-.696-4.793-1.816-6.172-2.489a268.883 268.883 0 0 0-2.797-1.353c-1.272-.567 1.49 4.785 4.328 8.387.855 1.085 1.555 2.137 1.555 2.338 0 .669 6.23 6.181 9.41 8.326 31.847 21.477 75.428 8.196 89.392-27.242.712-1.809 1.395-3.376 1.516-3.482 1.809-1.583 3.582-18.509 2.409-22.996-1.012-3.875-1.5-3.65-1.805.83Z" clip-rule="evenodd"/></svg>