<svg viewBox="0 0 256 369" fill="none" xmlns="http://www.w3.org/2000/svg">
  <path fill="#fff" fill-rule="evenodd"
    d="M113.604.476C93.328 2.479 72.512 9.92 55.697 21.178 44.625 28.591 36.304 37.84 28.285 48.053 1.114 82.66-4.07 134.068 16.863 161.298c28.865 37.547 110.043 37.946 159.087.784 39.872-30.214 56.245-80.958 38.141-118.21-8.593-17.68-27.547-29.828-49.764-31.895-6.042-.562-5.999-.619-4.134 5.536.642 2.116 1.166 5.033 1.166 6.481 0 2.142.404 2.798 2.153 3.506 26.448 10.692 33.913 34.393 19.728 62.64-4.929 9.818-21.648 29.676-27.834 33.063-.954.522-4.761 3.009-8.46 5.527-54.933 37.393-119.823 20.058-119.793-32.004.023-41.184 42.084-84.235 82.299-84.235 31.925 0 31.718 38.495-.401 74.402-6.847 7.655-6.444 9.026 1.358 4.628 24.765-13.957 46.669-47.128 44.374-67.195-2.144-18.738-15.373-26.4-41.179-23.85Zm-10.569 22.058c-9.39 4.1-17.13 8.402-26.226 14.574-12.44 8.443-24.64 18.577-33.453 30.868-9.425 13.144-11.757 31.134-6.133 47.319 3.13 9.01 3.899 9.079 5.643.506 2.844-13.98 9.174-29.053 17.334-41.274 8.81-13.196 20.241-24.234 33.426-32.676 6.526-4.178 19.073-10.118 25.764-12.197 6.569-2.04 7.135-2.915 4.26-6.573-4.196-5.34-9.324-5.477-20.615-.547ZM241.71 114.92c-1.221 17.879-7.325 32.962-16.805 47.628-6.38 9.87-12.51 16.834-20.8 23.63a1750.703 1750.703 0 0 0-9.865 8.135c-20.432 17.11-60.256 21.843-92.379 10.977-14.946-5.055-15.847-5.269-28.183-6.669-17.468-1.984-32.874-8.115-48.734-15.178-2.582-1.148 3.023 9.691 8.783 16.984 6.562 8.308 13.175 15.486 22.254 21.595 64.635 43.491 153.085 16.597 181.425-55.164 6.472-16.388 12.615-35.873 7.967-53.62-2.054-7.846-3.043-7.391-3.663 1.682Z"
    clip-rule="evenodd" />
  <path fill="#fff"
    d="M180.732 338.328h9.6c2.368-4.096 4.224-8.16 5.568-12.192a74.724 74.724 0 0 0 2.976-12.288 93.206 93.206 0 0 0 1.248-12.864c.192-4.416.288-9.056.288-13.92v-2.592h43.969v53.856h11.423v30.432h-14.4V351h-46.272v17.76h-14.4v-30.432Zm33.792-41.184a211.627 211.627 0 0 1-.671 10.656c-.32 3.648-.801 7.264-1.441 10.848a81.843 81.843 0 0 1-2.592 10.368c-1.024 3.328-2.336 6.432-3.936 9.312h23.904v-41.184h-15.264Zm-40.479 20.544c0 6.144-.896 11.392-2.688 15.744-1.728 4.352-4.128 7.936-7.2 10.752-3.008 2.816-6.56 4.896-10.656 6.24-4.096 1.28-8.448 1.92-13.056 1.92-4.416 0-8.48-.48-12.192-1.44-3.648-.96-7.296-2.368-10.944-4.224l4.8-12c.896.384 1.952.864 3.168 1.44a67.99 67.99 0 0 0 4.032 1.536c1.536.448 3.2.832 4.992 1.152 1.856.32 3.808.48 5.856.48 5.12 0 9.216-1.312 12.288-3.936 3.072-2.688 4.992-6.624 5.76-11.808h-27.84v-12.672h27.552c-.768-5.12-2.656-8.896-5.664-11.328-2.944-2.432-6.976-3.648-12.096-3.648-3.776 0-7.232.48-10.368 1.44-3.136.896-5.6 1.792-7.392 2.688l-4.416-11.712c3.648-1.92 7.392-3.296 11.232-4.128 3.904-.896 7.744-1.344 11.52-1.344 4.672 0 9.024.704 13.056 2.112 4.032 1.408 7.552 3.552 10.56 6.432 3.008 2.816 5.376 6.432 7.104 10.848 1.728 4.352 2.592 9.504 2.592 15.456Zm-84.81 34.656c-10.816 0-19.072-3.008-24.768-9.024-5.632-6.016-8.448-14.56-8.448-25.632 0-5.504.864-10.4 2.592-14.688 1.728-4.352 4.096-8 7.104-10.944 3.008-3.008 6.592-5.28 10.752-6.816 4.16-1.536 8.672-2.304 13.536-2.304 2.816 0 5.376.224 7.68.672 2.304.384 4.32.864 6.048 1.44 1.728.512 3.168 1.056 4.32 1.632 1.152.576 1.984 1.024 2.496 1.344l-4.32 12.096c-2.048-1.088-4.448-2.016-7.2-2.784-2.688-.768-5.76-1.152-9.216-1.152-2.304 0-4.576.384-6.816 1.152-2.176.768-4.128 2.016-5.856 3.744-1.664 1.664-3.008 3.84-4.032 6.528-1.024 2.688-1.536 5.952-1.536 9.792 0 3.072.32 5.952.96 8.64.704 2.624 1.792 4.896 3.264 6.816 1.536 1.92 3.52 3.456 5.952 4.608 2.432 1.088 5.376 1.632 8.832 1.632 2.176 0 4.128-.128 5.856-.384a54.67 54.67 0 0 0 4.608-.864c1.344-.384 2.528-.8 3.552-1.248 1.024-.448 1.952-.864 2.784-1.248l4.128 12c-2.112 1.28-5.088 2.432-8.928 3.456-3.84 1.024-8.288 1.536-13.344 1.536ZM.68 351v-66.528h44.928v12.576H15.656v13.056h26.592v12.288H15.656v16.032h32.16V351H.68Z" />
</svg>